# xmcd
#
# Track frame offsets: 
#        183
#        17423
#        39620
#        60248
#        76448
#        89423
#        106593
#        126523
#        142873
#        162298
#        179848
#        197698
#
# Disc length: 2824 seconds
#
# Revision: 7
# Processed by: cddbd v1.5.2PL0 Copyright (c) Steve Scherf et al.
# Submitted via: ExactAudioCopy v1.3
#
DISCID=970b060c
DTITLE=James Last - Erinnerungen
DYEAR=1983
DGENRE=Instrumental
TTITLE0=Erinnerung
TTITLE1=I.r.e.l.a.n.d.
TTITLE2=Song For Guy
TTITLE3=Unvergessen
TTITLE4=Arioso
TTITLE5=Daydreams
TTITLE6=Nocturne
TTITLE7=Caprice
TTITLE8=Traumerei
TTITLE9=Sorry Elton
TTITLE10=No Answer
TTITLE11=Missing
EXTD=
EXTT0=
EXTT1=
EXTT2=
EXTT3=
EXTT4=
EXTT5=
EXTT6=
EXTT7=
EXTT8=
EXTT9=
EXTT10=
EXTT11=
PLAYORDER=
